<?xml version="1.0" encoding="UTF-8" standalone="no"?>
<svg
   xmlns:osb="http://www.openswatchbook.org/uri/2009/osb"
   xmlns:dc="http://purl.org/dc/elements/1.1/"
   xmlns:cc="http://creativecommons.org/ns#"
   xmlns:rdf="http://www.w3.org/1999/02/22-rdf-syntax-ns#"
   xmlns:svg="http://www.w3.org/2000/svg"
   xmlns="http://www.w3.org/2000/svg"
   xmlns:sodipodi="http://sodipodi.sourceforge.net/DTD/sodipodi-0.dtd"
   xmlns:inkscape="http://www.inkscape.org/namespaces/inkscape"
   version="1.1"
   id="svg2"
   xml:space="preserve"
   width="1000"
   height="666.66669"
   viewBox="0 0 1000 666.66669"
   sodipodi:docname="pesquisa.svg"
   inkscape:version="1.0 (6e3e5246a0, 2020-05-07)"><metadata
     id="metadata8"><rdf:RDF><cc:Work
         rdf:about=""><dc:format>image/svg+xml</dc:format><dc:type
           rdf:resource="http://purl.org/dc/dcmitype/StillImage" /><dc:title /></cc:Work></rdf:RDF></metadata><defs
     id="defs6"><linearGradient
       id="linearGradient2369"
       osb:paint="solid"><stop
         style="stop-color:#fc2c62;stop-opacity:1;"
         offset="0"
         id="stop2367" /></linearGradient><clipPath
       clipPathUnits="userSpaceOnUse"
       id="clipPath18"><path
         d="M 0,500 H 750 V 0 H 0 Z"
         id="path16" /></clipPath><clipPath
       clipPathUnits="userSpaceOnUse"
       id="clipPath26"><path
         d="M 54.0785,466.046 H 700.235 V 59.707 H 54.0785 Z"
         id="path24" /></clipPath><clipPath
       clipPathUnits="userSpaceOnUse"
       id="clipPath42"><path
         d="M 0,500 H 750 V 0 H 0 Z"
         id="path40" /></clipPath><clipPath
       clipPathUnits="userSpaceOnUse"
       id="clipPath190"><path
         d="m 268.008,209.341 h 95.295 V 61.2867 h -95.295 z"
         id="path188" /></clipPath><clipPath
       clipPathUnits="userSpaceOnUse"
       id="clipPath210"><path
         d="m 338.716,230.367 h 55.886 V 59.7135 h -55.886 z"
         id="path208" /></clipPath><clipPath
       clipPathUnits="userSpaceOnUse"
       id="clipPath230"><path
         d="M 416.666,277.357 H 507.28 V 136.576 h -90.614 z"
         id="path228" /></clipPath><clipPath
       clipPathUnits="userSpaceOnUse"
       id="clipPath246"><path
         d="M 311.993,61.6267 H 673.634 V 42.1971 H 311.993 Z"
         id="path244" /></clipPath><clipPath
       clipPathUnits="userSpaceOnUse"
       id="clipPath274"><path
         d="m 537.465,201.566 h 48.417 V 187.7 h -48.417 z"
         id="path272" /></clipPath><clipPath
       clipPathUnits="userSpaceOnUse"
       id="clipPath290"><path
         d="m 463.573,186.877 h 73.396 V 60.6783 h -73.396 z"
         id="path288" /></clipPath><clipPath
       clipPathUnits="userSpaceOnUse"
       id="clipPath390"><path
         d="m 540.808,214.252 h 47.566 v -19.85 h -47.566 z"
         id="path388" /></clipPath><clipPath
       clipPathUnits="userSpaceOnUse"
       id="clipPath414"><path
         d="M 336.523,154.453 H 461.035 V 57.6105 H 336.523 Z"
         id="path412" /></clipPath><clipPath
       clipPathUnits="userSpaceOnUse"
       id="clipPath434"><path
         d="M 345.285,151.686 H 469.797 V 57.6105 H 345.285 Z"
         id="path432" /></clipPath><clipPath
       clipPathUnits="userSpaceOnUse"
       id="clipPath454"><path
         d="M 389.773,166.227 H 511.38 V 105.575 H 389.773 Z"
         id="path452" /></clipPath><clipPath
       clipPathUnits="userSpaceOnUse"
       id="clipPath474"><path
         d="m 347.031,263.328 h 122.12 v -91.351 h -122.12 z"
         id="path472" /></clipPath><clipPath
       clipPathUnits="userSpaceOnUse"
       id="clipPath506"><path
         d="M 128.201,60.1832 H 271.73 V 40.7535 H 128.201 Z"
         id="path504" /></clipPath><clipPath
       clipPathUnits="userSpaceOnUse"
       id="clipPath526"><path
         d="m 151.099,371.251 h 50.854 v -36.148 h -50.854 z"
         id="path524" /></clipPath><clipPath
       clipPathUnits="userSpaceOnUse"
       id="clipPath590"><path
         d="m 162.625,101.299 h 17.438 V 64.8305 h -17.438 z"
         id="path588" /></clipPath><clipPath
       clipPathUnits="userSpaceOnUse"
       id="clipPath618"><path
         d="m 209.391,110.086 h 13.907 V 61.4155 h -13.907 z"
         id="path616" /></clipPath><clipPath
       clipPathUnits="userSpaceOnUse"
       id="clipPath638"><path
         d="m 144.743,245.414 h 70.09 v -25.322 h -70.09 z"
         id="path636" /></clipPath><clipPath
       clipPathUnits="userSpaceOnUse"
       id="clipPath666"><path
         d="m 198.005,318.399 h 29.496 v -22.256 h -29.496 z"
         id="path664" /></clipPath><clipPath
       clipPathUnits="userSpaceOnUse"
       id="clipPath682"><path
         d="m 249.321,323.258 h 36.484 v -40.977 h -36.484 z"
         id="path680" /></clipPath><clipPath
       clipPathUnits="userSpaceOnUse"
       id="clipPath702"><path
         d="m 135.642,300.313 h 83.915 v -73.289 h -83.915 z"
         id="path700" /></clipPath><clipPath
       clipPathUnits="userSpaceOnUse"
       id="clipPath726"><path
         d="m 239.325,310.763 h 41.597 v -55.529 h -41.597 z"
         id="path724" /></clipPath><clipPath
       clipPathUnits="userSpaceOnUse"
       id="clipPath754"><path
         d="m 193.031,285.787 h 64.736 v -92.863 h -64.736 z"
         id="path752" /></clipPath><clipPath
       clipPathUnits="userSpaceOnUse"
       id="clipPath770"><path
         d="m 260.239,373.976 h 81.447 v -33.568 h -81.447 z"
         id="path768" /></clipPath><clipPath
       clipPathUnits="userSpaceOnUse"
       id="clipPath786"><path
         d="m 263.616,355.191 h 82.97 v -35.14 h -82.97 z"
         id="path784" /></clipPath><clipPath
       clipPathUnits="userSpaceOnUse"
       id="clipPath806"><path
         d="M 143.308,310.232 H 170.9 v -13.237 h -27.592 z"
         id="path804" /></clipPath><clipPath
       clipPathUnits="userSpaceOnUse"
       id="clipPath822"><path
         d="M 0,500 H 750 V 0 H 0 Z"
         id="path820" /></clipPath><clipPath
       clipPathUnits="userSpaceOnUse"
       id="clipPath2387"><g
         id="g2403"
         transform="matrix(0.38796306,0,0,-0.38796306,198.1277,-196.81699)"><g
           id="g2401"
           clip-path="url(#clipPath18)"><g
             id="g2399"
             style="opacity:1;fill:#000000;fill-opacity:1;fill-rule:nonzero"><g
               id="g2389"
               style="fill:#000000;fill-opacity:1;fill-rule:nonzero" /><g
               id="g2397"
               style="mix-blend-mode:normal;fill:#fc2c62;fill-opacity:1;fill-rule:nonzero;stroke-width:0.99975;stroke-miterlimit:4;stroke-dasharray:none"><g
                 clip-path="url(#clipPath26)"
                 opacity="0.699997"
                 id="g2395"
                 style="fill:#550000;fill-opacity:1;fill-rule:nonzero;stroke-width:0.99975;stroke-miterlimit:4;stroke-dasharray:none"><g
                   transform="translate(385.0436,408.183)"
                   id="g2393"
                   style="fill:#550000;fill-opacity:1;fill-rule:nonzero;stroke-width:0.99975;stroke-miterlimit:4;stroke-dasharray:none"><path
                     d="m 0,0 c 0,0 40.465,-31.595 110.231,2.747 69.767,34.343 163.254,30.222 189.766,-54.948 26.511,-85.17 31.396,-218.671 -96.278,-222.54 -115.403,-3.497 -152.824,-22.164 -196.079,-52.386 -43.255,-30.221 -202.448,-41.652 -282.324,57.889 -63.945,79.689 -79,164 -15.837,249.446 C -211.841,86.645 -99.069,74.18 0,0"
                     style="fill:#550000;fill-opacity:1;fill-rule:nonzero;stroke:none;stroke-width:0.99975;stroke-miterlimit:4;stroke-dasharray:none"
                     id="path2391" /></g></g></g></g></g></g></clipPath></defs><sodipodi:namedview
     inkscape:document-rotation="0"
     pagecolor="#ffffff"
     bordercolor="#666666"
     borderopacity="1"
     objecttolerance="10"
     gridtolerance="10"
     guidetolerance="10"
     inkscape:pageopacity="0"
     inkscape:pageshadow="2"
     inkscape:window-width="1366"
     inkscape:window-height="717"
     id="namedview4"
     showgrid="false"
     inkscape:lockguides="false"
     inkscape:zoom="1.1073292"
     inkscape:cx="351.18568"
     inkscape:cy="309.32583"
     inkscape:window-x="0"
     inkscape:window-y="0"
     inkscape:window-maximized="1"
     inkscape:current-layer="g38" /><g
     id="g10"
     inkscape:groupmode="layer"
     inkscape:label="2887699"
     transform="matrix(1.3333333,0,0,-1.3333333,0,666.66667)"><g
       id="g36"
       transform="matrix(0.38796306,0,0,0.38796306,214.95064,194.26236)"><g
         id="g38"
         clip-path="url(#clipPath42)"><g
           id="g744"
           transform="translate(194.1986,204.8501)" /><g
           id="g2745"
           inkscape:export-filename="/home/rafikmoreira/Ãrea de trabalho/infojequi-x/static/img/pesquisa.png"
           inkscape:export-xdpi="287.21307"
           inkscape:export-ydpi="287.21307"><rect
             clip-path="url(#clipPath2387)"
             transform="matrix(2.577565,0,0,-2.577565,-508.74395,-488.9082)"
             y="-383.34601"
             x="184.27007"
             height="169.46681"
             width="322.4902"
             id="rect2385"
             style="opacity:1;fill:#fc2c62;fill-opacity:1;fill-rule:nonzero;stroke-width:1.31677;stroke-miterlimit:4;stroke-dasharray:none" /><g
             transform="translate(528.0892,328.1443)"
             id="g44"><path
               id="path46"
               style="fill:#ffffff;fill-opacity:1;fill-rule:nonzero;stroke:none"
               d="m 0,0 c 0,-3.976 -3.223,-7.199 -7.199,-7.199 h -283.904 c -3.976,0 -7.199,3.223 -7.199,7.199 v 28.795 c 0,3.976 3.223,7.199 7.199,7.199 H -7.199 C -3.223,35.994 0,32.771 0,28.795 Z" /></g><g
             transform="translate(520.89,364.1382)"
             id="g48"><path
               id="path50"
               style="fill:#3a6593;fill-opacity:1;fill-rule:nonzero;stroke:none"
               d="M 0,0 H -46.342 V -43.193 H 0 c 3.976,0 7.199,3.223 7.199,7.199 V -7.199 C 7.199,-3.223 3.976,0 0,0" /></g><g
             transform="translate(510.9556,348.5672)"
             id="g52"><path
               id="path54"
               style="fill:#ffffff;fill-opacity:1;fill-rule:nonzero;stroke:none"
               d="m 0,0 c 2.22,-6.91 -1.582,-14.311 -8.492,-16.531 -6.91,-2.22 -14.312,1.582 -16.532,8.492 -2.22,6.91 1.582,14.311 8.493,16.531 C -9.621,10.712 -2.22,6.91 0,0 m -17.329,10.973 c -8.28,-2.66 -12.836,-11.529 -10.176,-19.809 2.66,-8.281 11.53,-12.837 19.81,-10.177 8.28,2.661 12.836,11.53 10.176,19.81 -2.66,8.281 -11.529,12.837 -19.81,10.176" /></g><g
             transform="translate(520.0592,328.9582)"
             id="g56"><path
               id="path58"
               style="fill:#ffffff;fill-opacity:1;fill-rule:nonzero;stroke:none"
               d="m 0,0 c 0.64,-0.52 0.737,-1.461 0.217,-2.1 -0.521,-0.64 -1.461,-0.737 -2.101,-0.217 l -8.641,6.966 c -0.64,0.52 -0.737,1.461 -0.217,2.101 0.52,0.639 1.461,0.736 2.101,0.216 z" /></g><g
             transform="translate(417.9165,306.8287)"
             id="g60"><path
               id="path62"
               style="fill:#728eb8;fill-opacity:1;fill-rule:nonzero;stroke:none"
               d="M 0,0 -6.758,27.468 19.016,15.527 13.191,10.139 19.452,2.422 13.191,-2.675 7.075,5.189 Z" /></g><g
             transform="translate(417.9165,306.8287)"
             id="g64"><path
               id="path66"
               style="fill:#3a6593;fill-opacity:1;fill-rule:nonzero;stroke:none"
               d="M 0,0 -6.758,27.468 16.36,-0.096 13.191,-2.675 7.075,5.189 Z" /></g><g
             transform="translate(339.7035,154.1157)"
             id="g68"><path
               id="path70"
               style="fill:#55d3d1;fill-opacity:1;fill-rule:nonzero;stroke:none"
               d="m 0,0 c 0,0 -12.817,29.129 2.987,64.988 0,0 0.984,-10.762 -0.729,-45.313 0,0 -1.153,15.064 14.616,40.688 0,0 -2.804,-24.617 -12.51,-52.826 0,0 5.603,22.605 15.869,30.34 C 20.233,37.877 19.178,13.905 0,0" /></g><g
             transform="translate(307.6556,241.3652)"
             id="g72"><path
               id="path74"
               style="fill:#3a6593;fill-opacity:1;fill-rule:nonzero;stroke:none"
               d="m 0,0 c 10.014,1.359 21.177,2.164 24.578,-9.658 1.493,-5.19 -0.167,-10.562 -0.51,-15.794 -0.287,-4.375 1.202,-8.428 3.749,-11.919 4.893,-6.704 14.748,-6.27 20.448,-12.228 7.179,-7.505 4.956,-20.81 3.186,-29.92 -0.138,-0.708 0.946,-1.01 1.084,-0.299 1.771,9.116 3.076,19.057 -1.171,27.691 -5.057,10.284 -18.575,8.41 -24.278,17.899 -3.727,6.2 -0.887,13.547 -0.774,20.201 0.071,4.168 -1.503,8.41 -4.14,11.594 C 16.996,3.816 6.605,2.021 -0.299,1.084 -1.015,0.987 -0.709,-0.096 0,0" /></g><g
             transform="translate(309.2353,242.2485)"
             id="g76"><path
               id="path78"
               style="fill:#3a6593;fill-opacity:1;fill-rule:nonzero;stroke:none"
               d="m 0,0 c 0,0 0.791,-11.872 -14.667,-7.157 0,0 5.11,12.208 14.667,7.157" /></g><g
             transform="translate(343.8959,198.5566)"
             id="g80"><path
               id="path82"
               style="fill:#3a6593;fill-opacity:1;fill-rule:nonzero;stroke:none"
               d="m 0,0 c 0,0 8.939,-7.853 -5.339,-15.421 0,0 -4.997,12.254 5.339,15.421" /></g><g
             transform="translate(335.3584,204.1322)"
             id="g84"><path
               id="path86"
               style="fill:#3a6593;fill-opacity:1;fill-rule:nonzero;stroke:none"
               d="m 0,0 c 0,0 0.791,-11.872 -14.667,-7.157 0,0 5.11,12.208 14.667,7.157" /></g><g
             transform="translate(338.8724,202.2011)"
             id="g88"><path
               id="path90"
               style="fill:#3a6593;fill-opacity:1;fill-rule:nonzero;stroke:none"
               d="M 0,0 C 0,0 -4.707,10.928 11.438,11.64 11.438,11.64 10.695,-1.573 0,0" /></g><g
             transform="translate(332.1744,213.3048)"
             id="g92"><path
               id="path94"
               style="fill:#3a6593;fill-opacity:1;fill-rule:nonzero;stroke:none"
               d="M 0,0 C 0,0 -5.986,-10.283 -16.161,2.272 -16.161,2.272 -5.097,9.534 0,0" /></g><g
             transform="translate(333.3092,221.2764)"
             id="g96"><path
               id="path98"
               style="fill:#3a6593;fill-opacity:1;fill-rule:nonzero;stroke:none"
               d="M 0,0 C 0,0 5.455,10.575 16.255,-1.447 16.255,-1.447 5.575,-9.262 0,0" /></g><g
             transform="translate(332.9116,232.6613)"
             id="g100"><path
               id="path102"
               style="fill:#3a6593;fill-opacity:1;fill-rule:nonzero;stroke:none"
               d="M 0,0 C 0,0 2.091,11.713 15.958,3.415 15.958,3.415 8.06,-7.204 0,0" /></g><g
             transform="translate(332.8904,227.8931)"
             id="g104"><path
               id="path106"
               style="fill:#3a6593;fill-opacity:1;fill-rule:nonzero;stroke:none"
               d="m 0,0 c 0,0 -2.992,-11.516 -16.175,-2.168 0,0 8.697,9.975 16.175,2.168" /></g><g
             transform="translate(328.7684,239.7118)"
             id="g108"><path
               id="path110"
               style="fill:#3a6593;fill-opacity:1;fill-rule:nonzero;stroke:none"
               d="M 0,0 C 0,0 -5.741,10.422 10.26,12.691 10.26,12.691 10.797,-0.532 0,0" /></g><g
             transform="translate(321.4439,241.8774)"
             id="g112"><path
               id="path114"
               style="fill:#3a6593;fill-opacity:1;fill-rule:nonzero;stroke:none"
               d="m 0,0 c 0,0 7.564,-9.185 -7.744,-14.365 0,0 -2.966,12.897 7.744,14.365" /></g><g
             transform="translate(317.8904,243.0317)"
             id="g116"><path
               id="path118"
               style="fill:#3a6593;fill-opacity:1;fill-rule:nonzero;stroke:none"
               d="M 0,0 C 0,0 -11.898,0.128 -6.003,15.176 -6.003,15.176 5.774,9.139 0,0" /></g><g
             transform="translate(352.36,63.945)"
             id="g120"><path
               id="path122"
               style="fill:#55d3d1;fill-opacity:1;fill-rule:nonzero;stroke:none"
               d="m 0,0 c 0,0 -42.801,36.98 -92.682,36.393 0,0 12.107,-6.529 53.418,-21.788 0,0 -17.062,8.877 -54.943,3.219 0,0 30.224,-9.019 68.101,-11.75 0,0 -29.266,4.735 -43.453,-3.419 0,0 43.695,-18.161 69.559,-2.655" /></g><g
             transform="translate(339.5275,151.6971)"
             id="g124"><path
               id="path126"
               style="fill:#55d3d1;fill-opacity:1;fill-rule:nonzero;stroke:none"
               d="m 0,0 c 0,0 3.463,31.635 -22.395,61.08 0,0 2.298,-10.559 14.325,-42.995 0,0 -3.432,14.713 -26.177,34.408 0,0 10.077,-22.634 27.818,-46.618 0,0 -12.143,19.874 -24.26,24.163 0,0 8.217,-22.545 30.689,-30.038" /></g><g
             transform="translate(442.0603,235.2759)"
             id="g128"><path
               id="path130"
               style="fill:#55d3d1;fill-opacity:1;fill-rule:nonzero;stroke:none"
               d="m 0,0 c 0,0 21.822,23.165 18.92,62.244 0,0 -4.527,-9.812 -14.467,-42.947 0,0 6.124,13.811 -0.166,43.234 0,0 -5.592,-24.138 -5.879,-53.969 0,0 2.28,23.178 -4.808,33.901 0,0 -7.023,-22.944 6.4,-42.463" /></g><g
             transform="translate(486.1934,185.3291)"
             id="g132"><path
               id="path134"
               style="fill:#55d3d1;fill-opacity:1;fill-rule:nonzero;stroke:none"
               d="m 0,0 c 0,0 -2.902,31.229 21.313,61.464 0,0 -2.228,-10.562 -13.67,-43.208 0,0 3.317,14.727 24.558,35.171 0,0 -9.544,-22.849 -26.194,-47.343 0,0 11.429,20.194 22.685,24.934 C 28.692,31.018 20.871,8.334 0,0" /></g><g
             transform="translate(454.1405,64.9077)"
             id="g136"><path
               id="path138"
               style="fill:#55d3d1;fill-opacity:1;fill-rule:nonzero;stroke:none"
               d="m 0,0 c 0,0 7.075,40.635 51.753,64.331 0,0 -6.886,-11.885 -34.544,-45.983 0,0 20.988,24.487 58.01,37.689 0,0 -32.6,-31.012 -64.642,-51.926 0,0 23.2,18.573 40.646,17.969 C 51.223,22.08 32.186,-1.689 0,0" /></g><g
             transform="translate(245.412,123.4649)"
             id="g140"><path
               id="path142"
               style="fill:#3a6593;fill-opacity:1;fill-rule:nonzero;stroke:none"
               d="m 0,0 c 4.325,-5.704 9.206,-11.914 16.144,-14.518 8.688,-3.259 18.454,0.197 26.764,-3.486 7.153,-3.17 11.326,-10.972 17.872,-15.159 9.411,-6.019 20.754,-3.141 30.39,0.539 1.043,0.398 0.59,2.09 -0.465,1.687 -11.021,-4.209 -22.671,-6.313 -32.456,1.775 -4.993,4.127 -8.583,9.632 -14.458,12.669 -6.719,3.473 -14.998,1.088 -22.229,2.267 C 12.61,-12.767 6.713,-5.978 1.511,0.883 0.838,1.77 -0.682,0.9 0,0" /></g><g
             transform="translate(249.3974,120.1664)"
             id="g144"><path
               id="path146"
               style="fill:#3a6593;fill-opacity:1;fill-rule:nonzero;stroke:none"
               d="M 0,0 C 0,0 -12.428,-2.428 -9.523,14.524 -9.523,14.524 4.051,10.768 0,0" /></g><g
             transform="translate(296.7059,101.2271)"
             id="g148"><path
               id="path150"
               style="fill:#3a6593;fill-opacity:1;fill-rule:nonzero;stroke:none"
               d="M 0,0 C 0,0 -11.599,5.081 0.441,17.363 0.441,17.363 9.461,6.545 0,0" /></g><g
             transform="translate(309.7519,88.9929)"
             id="g152"><path
               id="path154"
               style="fill:#3a6593;fill-opacity:1;fill-rule:nonzero;stroke:none"
               d="m 0,0 c 0,0 9.714,-8.124 -5.283,-16.545 0,0 -5.632,12.909 5.283,16.545" /></g><g
             transform="translate(300.9549,94.6915)"
             id="g156"><path
               id="path158"
               style="fill:#3a6593;fill-opacity:1;fill-rule:nonzero;stroke:none"
               d="m 0,0 c 0,0 2.658,-12.381 -14.345,-9.792 0,0 3.504,13.642 14.345,9.792" /></g><g
             transform="translate(287.9137,106.0706)"
             id="g160"><path
               id="path162"
               style="fill:#3a6593;fill-opacity:1;fill-rule:nonzero;stroke:none"
               d="m 0,0 c 0,0 5.448,-11.431 -11.694,-12.842 0,0 0.256,14.082 11.694,12.842" /></g><g
             transform="translate(276.2152,108.3559)"
             id="g164"><path
               id="path166"
               style="fill:#3a6593;fill-opacity:1;fill-rule:nonzero;stroke:none"
               d="M 0,0 C 0,0 -10.73,4.028 -0.445,15.713 -0.445,15.713 8.233,6.375 0,0" /></g><g
             transform="translate(265.4085,107.7253)"
             id="g168"><path
               id="path170"
               style="fill:#3a6593;fill-opacity:1;fill-rule:nonzero;stroke:none"
               d="m 0,0 c 0,0 10.833,-6.557 -2.713,-17.155 0,0 -7.525,11.906 2.713,17.155" /></g><g
             transform="translate(252.5637,115.3114)"
             id="g172"><path
               id="path174"
               style="fill:#3a6593;fill-opacity:1;fill-rule:nonzero;stroke:none"
               d="m 0,0 c 0,0 -0.461,-12.655 -16.309,-5.972 0,0 6.744,12.365 16.309,5.972" /></g><g
             transform="translate(260.3906,111.2062)"
             id="g176"><path
               id="path178"
               style="fill:#3a6593;fill-opacity:1;fill-rule:nonzero;stroke:none"
               d="M 0,0 C 0,0 -9.885,7.915 4.929,16.654 4.929,16.654 10.835,3.868 0,0" /></g><g
             transform="translate(361.8573,69.6013)"
             id="g180"><path
               id="path182"
               style="fill:#48b8b4;fill-opacity:1;fill-rule:nonzero;stroke:none"
               d="m 0,0 c 0,0 11.18,50.929 -14.906,55.277 -31.538,5.256 -9.827,34.059 -35.402,38.507 -25.575,4.448 -10.125,35.857 -29.028,44.753 -18.903,8.896 -17.791,-18.347 -5.56,-34.471 12.232,-16.123 -17.235,-27.798 16.68,-48.925 C -34.302,34.014 -79.892,18.446 -22.626,-1.013 34.639,-20.472 0,0 0,0" /></g><g
             id="g184"><g
               id="g186" /><g
               id="g198"><g
                 id="g196"
                 opacity="0.199997"
                 clip-path="url(#clipPath190)"><g
                   id="g194"
                   transform="translate(363.3027,61.2867)"><path
                     id="path192"
                     style="fill:#adefe6;fill-opacity:1;fill-rule:nonzero;stroke:none"
                     d="m 0,0 c -0.668,0.893 -1.35,1.796 -2.066,2.725 -52.097,67.601 -88.089,145.107 -88.193,145.329 -8.436,-3.472 -5.693,-23.003 3.918,-35.673 C -74.109,96.258 -103.576,84.582 -69.662,63.455 -35.747,42.328 -81.337,26.761 -24.072,7.302 -12.811,3.475 -5.116,1.198 0,0" /></g></g></g></g><g
             transform="translate(366.344,66.8387)"
             id="g200"><path
               id="path202"
               style="fill:#48b8b4;fill-opacity:1;fill-rule:nonzero;stroke:none"
               d="M 0,0 C 0,0 42.526,30.171 26.146,50.933 6.342,76.033 41.78,82.747 25.845,103.24 9.91,123.732 42.469,136.585 34.462,155.882 26.456,175.178 8.957,154.269 7.165,134.111 5.372,113.953 -24.287,125.13 -13.398,86.686 -2.509,48.242 -46.717,67.383 -17.426,14.468 11.866,-38.447 0,0 0,0" /></g><g
             id="g204"><g
               id="g206" /><g
               id="g218"><g
                 id="g216"
                 opacity="0.199997"
                 clip-path="url(#clipPath210)"><g
                   id="g214"
                   transform="translate(361.8216,59.7135)"><path
                     id="path212"
                     style="fill:#adefe6;fill-opacity:1;fill-rule:nonzero;stroke:none"
                     d="M 0,0 C 0.106,1.11 0.208,2.237 0.303,3.406 7.216,88.472 32.707,170.037 32.78,170.27 24.202,173.375 13.095,157.076 11.687,141.236 9.895,121.078 -19.764,132.256 -8.875,93.811 2.014,55.367 -42.195,74.508 -12.903,21.593 -7.143,11.188 -2.98,4.327 0,0" /></g></g></g></g><g
             transform="translate(418.0405,144.4818)"
             id="g220"><path
               id="path222"
               style="fill:#48b8b4;fill-opacity:1;fill-rule:nonzero;stroke:none"
               d="m 0,0 c 0,0 -10.63,48.427 14.174,52.561 29.988,4.998 9.344,32.387 33.663,36.616 24.318,4.23 9.627,34.096 27.602,42.555 17.974,8.458 16.917,-17.446 5.286,-32.778 C 69.095,83.623 97.114,72.521 64.865,52.432 32.617,32.343 75.967,17.54 21.515,-0.963 -32.938,-19.466 0,0 0,0" /></g><g
             id="g224"><g
               id="g226" /><g
               id="g238"><g
                 id="g236"
                 opacity="0.199997"
                 clip-path="url(#clipPath230)"><g
                   id="g234"
                   transform="translate(416.6661,136.5757)"><path
                     id="path232"
                     style="fill:#adefe6;fill-opacity:1;fill-rule:nonzero;stroke:none"
                     d="m 0,0 c 0.636,0.849 1.284,1.707 1.965,2.591 49.537,64.28 83.762,137.979 83.86,138.19 8.022,-3.301 5.414,-21.873 -3.725,-33.92 C 70.469,91.529 98.488,80.427 66.24,60.338 33.991,40.249 77.342,25.446 22.889,6.943 12.181,3.304 4.864,1.139 0,0" /></g></g></g></g><g
             id="g240"><g
               id="g242" /><g
               id="g254"><g
                 id="g252"
                 opacity="0.100006"
                 clip-path="url(#clipPath246)"><g
                   id="g250"
                   transform="translate(673.6345,51.9119)"><path
                     id="path248"
                     style="fill:#213d5d;fill-opacity:1;fill-rule:nonzero;stroke:none"
                     d="m 0,0 c 0,-5.365 -80.956,-9.715 -180.821,-9.715 -99.865,0 -180.821,4.35 -180.821,9.715 0,5.365 80.956,9.715 180.821,9.715 C -80.956,9.715 0,5.365 0,0" /></g></g></g></g><g
             transform="translate(485.1862,60.7255)"
             id="g256"><path
               id="path258"
               style="fill:#213d5d;fill-opacity:1;fill-rule:nonzero;stroke:none"
               d="M 0,0 C 0,0 -52.161,-18.253 8.181,-7.446 L 9.702,3.312 Z" /></g><g
             transform="translate(624.7398,64.4995)"
             id="g260"><path
               id="path262"
               style="fill:#213d5d;fill-opacity:1;fill-rule:nonzero;stroke:none"
               d="M 0,0 C 0,0 49.993,-36.404 7.854,8.119 L -1.975,3.488 Z" /></g><g
             transform="translate(583.3336,195.4378)"
             id="g264"><path
               id="path266"
               style="fill:#3a6593;fill-opacity:1;fill-rule:nonzero;stroke:none"
               d="m 0,0 c 0,0 18.248,-25.342 9.309,-53.435 -8.94,-28.093 -28.009,-48.682 -31.875,-57.57 0,0 12.194,5.354 28.292,1.724 16.097,-3.631 37.839,-14.669 37.839,-14.669 l 0.697,-11.875 c 0,0 -88.17,-8.299 -99.73,-3.453 -11.559,4.846 8.558,87.518 8.558,87.518 0,0 -28.415,-1.855 -44.472,3.125 0,0 8.21,-11.498 9.762,-34.952 1.553,-23.454 -6.924,-51.111 -6.924,-51.111 l -13.056,-0.062 c 0,0 -22.231,84.841 -17.5,107.657 4.731,22.817 70.764,18.149 70.764,18.149 l 7.501,15.082 z" /></g><g
             id="g268"><g
               id="g270" /><g
               id="g282"><g
                 id="g280"
                 opacity="0.5"
                 clip-path="url(#clipPath274)"><g
                   id="g278"
                   transform="translate(553.8224,188.5996)"><path
                     id="path276"
                     style="fill:#213d5d;fill-opacity:1;fill-rule:nonzero;stroke:none"
                     d="m 0,0 c 9.7,-0.959 22.785,-2.238 32.06,2.645 -0.965,1.6 -2.986,4.543 -2.986,4.543 L -11.323,12.966 -16.358,2.845 C -11,1.521 -5.547,0.549 0,0" /></g></g></g></g><g
             id="g284"><g
               id="g286" /><g
               id="g298"><g
                 id="g296"
                 opacity="0.5"
                 clip-path="url(#clipPath290)"><g
                   id="g294"
                   transform="translate(536.4233,143.6776)"><path
                     id="path292"
                     style="fill:#213d5d;fill-opacity:1;fill-rule:nonzero;stroke:none"
                     d="m 0,0 c 0,0 -0.048,-0.28 -0.133,-0.786 0.19,0.227 0.417,0.422 0.678,0.582 -9.037,11.898 -11.22,28.919 -14.434,43.401 -19.377,0.089 -54.878,-2.033 -58.301,-18.539 -4.731,-22.817 17.5,-107.657 17.5,-107.657 l 13.057,0.061 c 0,0 8.476,27.657 6.924,51.111 -1.552,23.454 -9.763,34.952 -9.763,34.952 C -28.415,-1.854 0,0 0,0" /></g></g></g></g><g
             transform="translate(583.847,320.5505)"
             id="g300"><path
               id="path302"
               style="fill:#2c3f83;fill-opacity:1;fill-rule:nonzero;stroke:none"
               d="m 0,0 c 0,0 -21.147,8.661 -29.547,-7.499 -8.4,-16.161 -2.622,-26.789 -19.161,-37.06 -16.538,-10.27 -16.342,-32.111 0.188,-42.999 16.53,-10.888 46.546,5.476 46.546,5.476 z" /></g><g
             transform="translate(584.8954,319.1159)"
             id="g304"><path
               id="path306"
               style="fill:#2a1e5c;fill-opacity:1;fill-rule:nonzero;stroke:none"
               d="m 0,0 c 0,0 -0.455,0.211 -1.333,0.546 -0.879,0.332 -2.182,0.787 -3.877,1.231 -1.694,0.439 -3.785,0.866 -6.211,1.045 -2.417,0.151 -5.196,0.079 -8.054,-0.74 -2.846,-0.797 -5.751,-2.425 -7.963,-4.999 -1.121,-1.289 -2.072,-2.694 -2.897,-4.326 -0.896,-1.586 -1.656,-3.229 -2.386,-4.945 -1.453,-3.441 -2.481,-7.171 -3.593,-10.97 -1.083,-3.789 -2.529,-7.693 -5.031,-10.965 -2.481,-3.283 -5.866,-5.736 -9.354,-7.63 -3.44,-1.927 -6.452,-4.29 -8.74,-7.218 -2.288,-2.897 -3.863,-6.217 -4.539,-9.547 -0.709,-3.325 -0.656,-6.59 -0.148,-9.522 0.184,-0.721 0.364,-1.426 0.541,-2.116 0.094,-0.344 0.166,-0.69 0.276,-1.02 0.128,-0.324 0.254,-0.643 0.378,-0.959 0.247,-0.634 0.488,-1.251 0.723,-1.851 0.305,-0.567 0.602,-1.118 0.89,-1.652 0.306,-0.523 0.53,-1.077 0.878,-1.527 0.33,-0.463 0.647,-0.909 0.952,-1.337 0.314,-0.422 0.58,-0.857 0.897,-1.22 0.326,-0.357 0.636,-0.698 0.93,-1.021 0.606,-0.629 1.08,-1.264 1.612,-1.69 0.515,-0.446 0.952,-0.825 1.307,-1.133 0.711,-0.616 1.09,-0.944 1.09,-0.944 0,0 -0.389,0.317 -1.117,0.912 -0.364,0.298 -0.814,0.665 -1.343,1.097 -0.547,0.413 -1.039,1.033 -1.667,1.649 -0.306,0.316 -0.628,0.65 -0.966,1 -0.33,0.357 -0.611,0.785 -0.939,1.202 -0.321,0.424 -0.655,0.865 -1.001,1.323 -0.366,0.445 -0.608,0.996 -0.934,1.517 -0.307,0.533 -0.624,1.084 -0.951,1.651 -0.256,0.602 -0.519,1.222 -0.79,1.858 -0.134,0.319 -0.27,0.642 -0.408,0.969 -0.117,0.334 -0.197,0.686 -0.299,1.034 -0.191,0.701 -0.402,1.416 -0.588,2.153 -0.569,2.987 -0.681,6.335 -0.006,9.771 0.64,3.44 2.202,6.911 4.567,9.912 0.524,0.807 1.24,1.46 1.899,2.172 0.337,0.349 0.665,0.71 1.014,1.051 l 1.149,0.935 c 1.503,1.351 3.192,2.247 4.899,3.333 3.417,1.877 6.671,4.278 9.029,7.43 2.411,3.118 3.836,6.869 4.936,10.64 1.126,3.769 2.188,7.546 3.683,11.033 0.752,1.737 1.548,3.458 2.466,5.004 0.832,1.587 1.896,3.126 3.064,4.411 2.344,2.639 5.398,4.282 8.337,5.053 2.954,0.807 5.788,0.79 8.226,0.564 C -8.944,2.913 -6.855,2.422 -5.167,1.931 -3.479,1.436 -2.188,0.943 -1.318,0.585 -0.449,0.224 0,0 0,0" /></g><g
             transform="translate(567.4988,267.4563)"
             id="g308"><path
               id="path310"
               style="fill:#ffc2b8;fill-opacity:1;fill-rule:nonzero;stroke:none"
               d="m 0,0 c 0,0 0.3,-12.299 -1.5,-13.499 -1.8,-1.199 -15.898,7.5 -24.897,-0.299 -8.999,-7.8 14.998,-38.696 21.897,-38.996 6.9,-0.3 33.297,7.799 32.997,16.498 -0.3,8.699 -14.698,17.698 -13.499,35.696 C 16.198,17.398 0,0 0,0" /></g><g
             transform="translate(567.1745,257.8849)"
             id="g312"><path
               id="path314"
               style="fill:#ffa499;fill-opacity:1;fill-rule:nonzero;stroke:none"
               d="M 0,0 C 5.352,0.041 10.574,0.889 15.389,3.175 15.227,5.026 15.188,6.953 15.323,8.972 16.523,26.97 0.324,9.571 0.324,9.571 0.324,9.571 0.459,4.008 0,0" /></g><g
             transform="translate(579.4225,314.3264)"
             id="g316"><path
               id="path318"
               style="fill:#ffc2b8;fill-opacity:1;fill-rule:nonzero;stroke:none"
               d="m 0,0 c 0,0 -14.853,1.117 -20.998,-14.486 -6.374,-16.186 -6.074,-33.628 9.524,-36.288 15.599,-2.661 30.222,11.233 31.122,23.059 C 20.548,-15.89 18.298,-1.478 0,0" /></g><g
             style="fill:#2a1e5c;fill-opacity:1"
             transform="translate(574.3231,313.2013)"
             id="g320"><path
               id="path322"
               style="fill:#2a1e5c;fill-opacity:1;fill-rule:nonzero;stroke:none"
               d="m 0,0 c 0,0 -2.475,-11.249 14.173,-21.148 0,0 -20.697,-37.571 -3.149,-49.269 17.548,-11.699 -1.134,-28.261 6.74,-37.035 7.874,-8.774 33.991,-3.916 44.329,19.262 13.949,31.271 -31.721,36.896 -23.622,63.443 0,0 6.524,19.348 -7.874,30.146 C 16.654,15.856 2.25,13.048 0,0" /></g><g
             transform="translate(639.0341,224.6002)"
             id="g324"><path
               id="path326"
               style="fill:#2c3f83;fill-opacity:1;fill-rule:nonzero;stroke:none"
               d="m 0,0 c 0,0 0.174,0.537 0.499,1.543 0.369,0.995 0.732,2.505 1.121,4.419 0.297,1.933 0.54,4.317 0.197,7.007 -0.369,2.677 -1.337,5.613 -3.08,8.439 -1.727,2.836 -4.117,5.571 -6.866,8.252 -2.754,2.687 -5.873,5.317 -8.947,8.275 -1.543,1.469 -3.068,3.033 -4.493,4.742 -1.439,1.691 -2.754,3.57 -3.766,5.652 -1.007,2.07 -1.79,4.338 -1.989,6.701 -0.111,0.583 -0.074,1.176 -0.098,1.767 -0.014,0.591 -0.037,1.183 0.047,1.768 l 0.174,1.76 0.363,1.723 c 1.165,4.314 1.587,8.716 1.142,13.022 -0.446,4.277 -1.835,8.392 -4.234,11.688 -1.189,1.651 -2.607,3.087 -4.138,4.322 -0.386,0.288 -0.789,0.625 -1.154,0.871 -0.42,0.277 -0.837,0.552 -1.253,0.826 -0.415,0.273 -0.828,0.544 -1.238,0.814 -0.418,0.228 -0.833,0.454 -1.245,0.679 -3.302,1.807 -6.767,3.003 -10.038,3.367 -3.271,0.37 -6.355,-0.097 -8.765,-1.262 -2.432,-1.151 -4.074,-2.955 -5.109,-4.583 -0.243,-0.422 -0.472,-0.823 -0.689,-1.199 -0.204,-0.383 -0.322,-0.777 -0.472,-1.126 -0.14,-0.355 -0.27,-0.683 -0.39,-0.983 -0.105,-0.306 -0.152,-0.598 -0.22,-0.852 -0.246,-1.028 -0.378,-1.576 -0.378,-1.576 0,0 0.096,0.557 0.277,1.6 0.052,0.259 0.08,0.558 0.167,0.872 0.101,0.311 0.21,0.65 0.329,1.017 0.13,0.363 0.223,0.775 0.41,1.176 0.203,0.396 0.418,0.817 0.646,1.261 0.98,1.721 2.597,3.689 5.105,5.027 2.479,1.358 5.734,2.011 9.19,1.723 3.468,-0.265 7.102,-1.378 10.632,-3.213 0.444,-0.23 0.89,-0.461 1.34,-0.693 0.417,-0.26 0.837,-0.521 1.259,-0.784 0.422,-0.264 0.846,-0.528 1.273,-0.795 0.477,-0.306 0.857,-0.614 1.294,-0.924 1.674,-1.27 3.213,-2.811 4.527,-4.569 2.633,-3.524 4.24,-7.943 4.711,-12.485 0.502,-4.531 0.054,-9.26 -1.116,-13.655 l -0.344,-1.585 -0.165,-1.604 c -0.083,-0.534 -0.06,-1.069 -0.05,-1.603 0.02,-0.533 -0.023,-1.071 0.079,-1.596 0.165,-2.13 0.863,-4.175 1.779,-6.085 0.925,-1.914 2.128,-3.693 3.481,-5.336 1.338,-1.654 2.795,-3.198 4.293,-4.666 2.988,-2.94 6.048,-5.676 8.779,-8.472 2.738,-2.785 5.115,-5.697 6.806,-8.71 1.729,-2.996 2.595,-6.128 2.839,-8.91 C 2.744,10.249 2.377,7.832 1.984,5.889 1.507,3.955 1.018,2.478 0.597,1.508 0.208,0.524 0,0 0,0" /></g><g
             transform="translate(592.771,288.454)"
             id="g328"><path
               id="path330"
               style="fill:#ffc2b8;fill-opacity:1;fill-rule:nonzero;stroke:none"
               d="m 0,0 -4.275,-11.249 c 0,0 4.808,-4.13 8.999,3.15 C 8.999,-0.675 4.5,3.375 0,0" /></g><g
             transform="translate(593.8959,276.5303)"
             id="g332"><path
               id="path334"
               style="fill:#ffffff;fill-opacity:1;fill-rule:nonzero;stroke:none"
               d="m 0,0 c 0,-1.118 -0.906,-2.025 -2.025,-2.025 -1.118,0 -2.024,0.907 -2.024,2.025 0,1.118 0.906,2.025 2.024,2.025 C -0.906,2.025 0,1.118 0,0" /></g><g
             transform="translate(569.8985,294.7533)"
             id="g336"><path
               id="path338"
               style="fill:#f29c95;fill-opacity:1;fill-rule:nonzero;stroke:none"
               d="m 0,0 c -0.865,-1.785 -1.916,-3.428 -3.026,-5.027 -0.27,-0.405 -0.567,-0.791 -0.852,-1.184 -0.287,-0.393 -0.574,-0.786 -0.878,-1.165 -0.591,-0.773 -1.212,-1.522 -1.841,-2.265 l -0.155,0.825 c 1.242,-0.894 2.47,-1.811 3.602,-2.883 -1.467,0.529 -2.839,1.211 -4.196,1.917 l -0.528,0.275 0.373,0.551 c 0.546,0.806 1.1,1.607 1.684,2.384 0.283,0.396 0.583,0.778 0.884,1.16 0.302,0.381 0.593,0.771 0.91,1.14 C -2.783,-2.771 -1.485,-1.315 0,0" /></g><g
             transform="translate(559.968,298.5029)"
             id="g340"><path
               id="path342"
               style="fill:#213d5d;fill-opacity:1;fill-rule:nonzero;stroke:none"
               d="m 0,0 c 0,0 -0.072,-0.255 -0.173,-0.695 -0.101,-0.44 -0.236,-1.069 -0.313,-1.807 -0.033,-0.371 -0.042,-0.765 -0.027,-1.169 0.038,-0.399 0.102,-0.81 0.254,-1.174 0.117,-0.387 0.392,-0.673 0.667,-0.945 0.137,-0.141 0.339,-0.223 0.5,-0.345 0.19,-0.092 0.404,-0.156 0.603,-0.24 0,0 0.098,-0.036 0.026,-0.019 l 0.094,-0.022 0.188,-0.046 0.375,-0.09 c 0.252,-0.062 0.416,-0.034 0.627,-0.065 0.202,-0.012 0.421,0.029 0.631,0.026 0.208,0.035 0.412,0.082 0.615,0.13 0.389,0.143 0.773,0.3 1.11,0.523 0.337,0.219 0.65,0.458 0.918,0.709 0.539,0.5 0.947,0.994 1.221,1.35 0.276,0.357 0.42,0.579 0.42,0.579 0,0 -0.037,-0.262 -0.182,-0.703 C 7.479,-4.223 7.386,-4.492 7.238,-4.783 7.1,-5.078 6.924,-5.408 6.68,-5.737 6.215,-6.403 5.5,-7.139 4.477,-7.576 4.219,-7.669 3.948,-7.758 3.672,-7.828 3.387,-7.866 3.107,-7.93 2.802,-7.92 2.509,-7.901 2.153,-7.903 1.905,-7.848 l -0.377,0.08 -0.189,0.039 -0.095,0.02 c -0.133,0.036 -0.097,0.032 -0.154,0.052 -0.274,0.118 -0.553,0.218 -0.818,0.36 -0.251,0.18 -0.525,0.322 -0.742,0.545 -0.211,0.229 -0.443,0.441 -0.569,0.722 l -0.214,0.397 -0.132,0.415 c -0.176,0.549 -0.16,1.087 -0.132,1.57 0.045,0.483 0.154,0.918 0.276,1.307 0.248,0.775 0.578,1.356 0.822,1.749 C -0.171,-0.201 0,0 0,0" /></g><g
             transform="translate(575.2663,292.2036)"
             id="g344"><path
               id="path346"
               style="fill:#213d5d;fill-opacity:1;fill-rule:nonzero;stroke:none"
               d="m 0,0 c 0,0 -0.072,-0.255 -0.173,-0.696 -0.101,-0.439 -0.236,-1.068 -0.313,-1.806 -0.033,-0.371 -0.042,-0.765 -0.027,-1.169 0.038,-0.399 0.102,-0.81 0.254,-1.174 0.117,-0.387 0.392,-0.673 0.667,-0.946 0.137,-0.14 0.339,-0.222 0.501,-0.344 0.189,-0.092 0.403,-0.156 0.602,-0.241 0,0 0.098,-0.035 0.026,-0.018 l 0.094,-0.022 0.188,-0.046 0.375,-0.09 c 0.253,-0.062 0.416,-0.034 0.627,-0.065 0.202,-0.012 0.421,0.029 0.632,0.026 0.207,0.035 0.411,0.082 0.614,0.13 0.389,0.143 0.774,0.3 1.11,0.523 0.337,0.219 0.65,0.458 0.918,0.709 0.539,0.5 0.947,0.994 1.221,1.35 0.276,0.357 0.42,0.579 0.42,0.579 0,0 -0.037,-0.262 -0.182,-0.703 C 7.48,-4.223 7.386,-4.492 7.238,-4.783 7.1,-5.078 6.924,-5.408 6.68,-5.737 6.215,-6.403 5.5,-7.139 4.477,-7.576 4.219,-7.669 3.948,-7.758 3.672,-7.828 3.387,-7.866 3.107,-7.93 2.802,-7.92 2.509,-7.901 2.153,-7.903 1.905,-7.848 l -0.377,0.08 -0.189,0.039 -0.095,0.02 c -0.133,0.036 -0.097,0.032 -0.153,0.052 -0.275,0.118 -0.554,0.218 -0.819,0.359 -0.251,0.181 -0.525,0.323 -0.742,0.546 -0.211,0.229 -0.442,0.441 -0.569,0.722 l -0.214,0.397 -0.132,0.415 c -0.176,0.549 -0.16,1.087 -0.132,1.57 0.045,0.483 0.154,0.918 0.276,1.307 0.249,0.775 0.579,1.356 0.822,1.749 C -0.171,-0.201 0,0 0,0" /></g><g
             transform="translate(561.7994,277.9551)"
             id="g348"><path
               id="path350"
               style="fill:#f29c95;fill-opacity:1;fill-rule:nonzero;stroke:none"
               d="M 0,0 C 0,0 0.691,-0.323 1.698,-0.678 2.204,-0.853 2.789,-1.04 3.423,-1.194 3.736,-1.285 4.067,-1.341 4.4,-1.406 4.73,-1.485 5.075,-1.514 5.414,-1.572 5.755,-1.625 6.1,-1.636 6.438,-1.684 6.779,-1.703 7.116,-1.721 7.441,-1.74 c 0.326,0.008 0.645,0.004 0.95,-0.003 0.305,-0.006 0.592,0.027 0.863,0.026 0.542,0.002 0.995,0.054 1.323,0.061 0.327,0.011 0.522,0.006 0.522,0.006 0,0 -0.158,-0.103 -0.447,-0.264 C 10.361,-2.068 9.945,-2.314 9.4,-2.478 9.13,-2.564 8.839,-2.688 8.516,-2.743 8.195,-2.806 7.854,-2.885 7.497,-2.927 7.139,-2.947 6.766,-2.991 6.386,-2.992 6.007,-2.973 5.619,-2.961 5.236,-2.91 4.855,-2.838 4.468,-2.797 4.104,-2.679 3.734,-2.589 3.382,-2.456 3.047,-2.319 2.705,-2.203 2.403,-2.015 2.109,-1.868 1.825,-1.698 1.558,-1.537 1.332,-1.357 0.399,-0.675 0,0 0,0" /></g><g
             style="fill:#2c3f83;fill-opacity:1"
             transform="translate(576.0479,298.0529)"
             id="g352"><path
               id="path354"
               style="fill:#2c3f83;fill-opacity:1;fill-rule:nonzero;stroke:none"
               d="M 0,0 C 0,0 0.194,0.156 0.575,0.33 0.953,0.508 1.519,0.714 2.227,0.826 2.935,0.95 3.782,0.949 4.682,0.804 5.127,0.715 5.594,0.624 6.041,0.44 6.503,0.295 6.938,0.065 7.37,-0.173 c 0.438,-0.225 0.814,-0.552 1.198,-0.842 0.374,-0.303 0.681,-0.67 0.991,-1.001 0.29,-0.349 0.516,-0.73 0.739,-1.074 0.229,-0.34 0.348,-0.722 0.49,-1.045 0.28,-0.652 0.354,-1.256 0.41,-1.664 0.054,-0.41 0.051,-0.65 0.051,-0.65 0,0 -0.212,0.141 -0.524,0.397 -0.155,0.129 -0.347,0.279 -0.536,0.463 -0.185,0.187 -0.446,0.356 -0.686,0.561 -0.254,0.193 -0.473,0.442 -0.767,0.637 -0.269,0.209 -0.553,0.43 -0.846,0.658 -0.31,0.197 -0.599,0.43 -0.911,0.636 -0.332,0.175 -0.614,0.433 -0.961,0.588 -0.644,0.392 -1.329,0.714 -1.993,1.018 -0.671,0.285 -1.326,0.559 -1.92,0.764 C 1.515,-0.5 0.991,-0.332 0.612,-0.203 0.223,-0.074 0,0 0,0" /></g><g
             style="fill:#2c3f83;fill-opacity:1"
             transform="translate(561.1728,304.3107)"
             id="g356"><path
               id="path358"
               style="fill:#2c3f83;fill-opacity:1;fill-rule:nonzero;stroke:none"
               d="M 0,0 C 0,0 0.134,0.177 0.436,0.398 0.735,0.615 1.203,0.897 1.822,1.073 2.437,1.249 3.209,1.35 4.024,1.234 4.846,1.149 5.686,0.832 6.446,0.403 6.797,0.152 7.184,-0.065 7.481,-0.363 7.782,-0.655 8.095,-0.934 8.321,-1.256 8.554,-1.573 8.768,-1.887 8.949,-2.191 9.105,-2.512 9.239,-2.82 9.351,-3.106 9.472,-3.388 9.54,-3.665 9.584,-3.917 9.642,-4.16 9.666,-4.384 9.69,-4.563 c 0.044,-0.361 0.038,-0.576 0.038,-0.576 0,0 -0.202,0.104 -0.5,0.301 C 8.914,-4.654 8.562,-4.331 8.086,-4.027 7.86,-3.867 7.626,-3.691 7.394,-3.5 7.145,-3.329 6.886,-3.156 6.641,-2.961 6.399,-2.76 6.11,-2.622 5.864,-2.423 5.608,-2.235 5.327,-2.097 5.069,-1.918 4.798,-1.767 4.528,-1.616 4.261,-1.467 3.984,-1.346 3.722,-1.186 3.445,-1.082 3.176,-0.951 2.902,-0.858 2.636,-0.749 2.369,-0.658 2.106,-0.555 1.855,-0.484 1.35,-0.311 0.894,-0.212 0.554,-0.122 0.201,-0.045 0,0 0,0" /></g><g
             transform="translate(528.6531,236.7097)"
             id="g360"><path
               id="path362"
               style="fill:#ffc2b8;fill-opacity:1;fill-rule:nonzero;stroke:none"
               d="M 0,0 -13.948,-15.298 -65.243,3.6 l -1.8,-11.249 c 0,0 49.495,-26.997 54.444,-26.997 4.95,0 28.797,25.647 28.797,25.647 z" /></g><g
             transform="translate(485.9119,232.0192)"
             id="g364"><path
               id="path366"
               style="fill:#ffa499;fill-opacity:1;fill-rule:nonzero;stroke:none"
               d="m 0,0 -22.502,8.29 -1.8,-11.249 c 0,0 18.99,-10.357 34.621,-18.242 C 7.079,-14.032 3.787,-6.891 0,0" /></g><g
             transform="translate(540.9471,223.5989)"
             id="g368"><path
               id="path370"
               style="fill:#ffa499;fill-opacity:1;fill-rule:nonzero;stroke:none"
               d="m 0,0 c 2.368,2.46 3.904,4.112 3.904,4.112 l -16.198,8.999 -3.293,-3.612 C -10.383,6.336 -5.553,2.522 0,0" /></g><g
             transform="translate(470.0355,236.1399)"
             id="g372"><path
               id="path374"
               style="fill:#ffa499;fill-opacity:1;fill-rule:nonzero;stroke:none"
               d="M 0,0 C 0,0 -0.191,22.7 -3.052,3.434 -5.913,-15.833 0,0 0,0" /></g><g
             transform="translate(537.0158,228.1389)"
             id="g376"><path
               id="path378"
               style="fill:#55d3d1;fill-opacity:1;fill-rule:nonzero;stroke:none"
               d="m 0,0 -11.737,8.486 c 0,0 12.64,19.321 22.722,20.033 C 10.985,28.519 0.903,8.486 0,0" /></g><g
             transform="translate(548.0009,256.6575)"
             id="g380"><path
               id="path382"
               style="fill:#55d3d1;fill-opacity:1;fill-rule:nonzero;stroke:none"
               d="m 0,0 c 0,0 -3.9,-14.398 13.499,-21.298 17.398,-6.899 24.897,9.899 30.596,0.3 5.7,-9.599 -8.099,-41.095 -8.099,-41.095 0,0 -23.997,-1.8 -41.995,6.599 0,0 -0.9,6.899 -1.2,13.199 0,0 -17.098,7.949 0,28.197 L -6.899,-3 c 0,0 2.1,3 6.899,3" /></g><g
             id="g384"><g
               id="g386" /><g
               id="g398"><g
                 id="g396"
                 opacity="0.199997"
                 clip-path="url(#clipPath390)"><g
                   id="g394"
                   transform="translate(576.3054,207.0689)"><path
                     id="path392"
                     style="fill:#213d5d;fill-opacity:1;fill-rule:nonzero;stroke:none"
                     d="m 0,0 c -8.249,1.033 -16.539,2.235 -24.683,3.924 -3.557,0.737 -7.413,1.627 -10.815,3.259 0.305,-6.269 1.194,-13.088 1.194,-13.088 17.998,-8.399 41.996,-6.6 41.996,-6.6 0,0 2.134,4.879 4.377,11.373 C 8.038,-0.868 4.013,-0.503 0,0" /></g></g></g></g><g
             transform="translate(359.5807,59.9163)"
             id="g400"><path
               id="path402"
               style="fill:#9e9eb3;fill-opacity:0.80784315;fill-rule:nonzero;stroke:none"
               d="M 0,0 -24.441,-6.456 -36.892,106.527 H 8.301 l 2.306,-8.301 H 65.945 L 71.479,3.689 Z" /></g><g
             transform="translate(339.2899,57.6105)"
             id="g404"><path
               id="path406"
               style="fill:#ffffff;fill-opacity:1;fill-rule:nonzero;stroke:none"
               d="M 0,0 -2.767,96.381 121.745,96.842 95.92,2.767 Z" /></g><g
             id="g408"><g
               id="g410" /><g
               id="g422"><g
                 id="g420"
                 opacity="0.300003"
                 clip-path="url(#clipPath414)"><g
                   id="g418"
                   transform="translate(339.2899,57.6105)"><path
                     id="path416"
                     style="fill:#728eb8;fill-opacity:1;fill-rule:nonzero;stroke:none"
                     d="M 0,0 -2.767,96.381 121.745,96.842 95.92,2.767 Z" /></g></g></g></g><g
             transform="translate(348.0518,59.9163)"
             id="g424"><path
               id="path426"
               style="fill:#ffffff;fill-opacity:1;fill-rule:nonzero;stroke:none"
               d="M 0,0 -2.767,91.308 121.745,91.77 95.92,-2.306 Z" /></g><g
             id="g428"><g
               id="g430" /><g
               id="g442"><g
                 id="g440"
                 opacity="0.100006"
                 clip-path="url(#clipPath434)"><g
                   id="g438"
                   transform="translate(348.0518,59.9163)"><path
                     id="path436"
                     style="fill:#728eb8;fill-opacity:1;fill-rule:nonzero;stroke:none"
                     d="M 0,0 -2.767,91.308 121.745,91.77 95.92,-2.306 Z" /></g></g></g></g><g
             transform="translate(391.1228,108.3418)"
             id="g444"><path
               id="path446"
               style="fill:#ffffff;fill-opacity:1;fill-rule:nonzero;stroke:none"
               d="M 0,0 -2.767,91.309 121.745,91.77 117.594,-2.767 Z" /></g><g
             id="g448"><g
               id="g450" /><g
               id="g462"><g
                 id="g460"
                 opacity="0.100006"
                 clip-path="url(#clipPath454)"><g
                   id="g458"
                   transform="translate(389.7728,146.7499)"><path
                     id="path456"
                     style="fill:#728eb8;fill-opacity:1;fill-rule:nonzero;stroke:none"
                     d="m 0,0 1.35,-38.408 117.594,-2.767 2.663,60.652 z" /></g></g></g></g><g
             transform="translate(347.546,174.7438)"
             id="g464"><path
               id="path466"
               style="fill:#ffffff;fill-opacity:1;fill-rule:nonzero;stroke:none"
               d="M 0,0 -2.767,91.309 121.745,91.77 117.594,-2.767 Z" /></g><g
             id="g468"><g
               id="g470" /><g
               id="g482"><g
                 id="g480"
                 opacity="0.100006"
                 clip-path="url(#clipPath474)"><g
                   id="g478"
                   transform="translate(347.0313,191.7303)"><path
                     id="path476"
                     style="fill:#728eb8;fill-opacity:1;fill-rule:nonzero;stroke:none"
                     d="m 0,0 0.515,-16.986 117.594,-2.767 4.011,91.35 z" /></g></g></g></g><g
             style="fill:#b3b3b3;fill-opacity:1"
             transform="translate(335.1395,53.4601)"
             id="g484"><path
               id="path486"
               style="fill:#b3b3b3;fill-opacity:1;fill-rule:nonzero;stroke:none"
               d="m 0,0 h 122.667 l 36.431,99.148 h -40.581 l -3.69,-6.917 H 31.358 Z" /></g><g
             transform="translate(565.3353,221.0634)"
             id="g488"><path
               id="path490"
               style="fill:#ffc2b8;fill-opacity:1;fill-rule:nonzero;stroke:none"
               d="m 0,0 -23.306,-25.385 c 0,0 -30.483,-3.319 -37.38,-4.107 -0.611,-0.07 -1.125,-0.132 -1.574,-0.189 -7.907,6.138 -4.561,1.654 -2.75,-0.566 -22.599,-5.137 -3.459,-2.989 -3.459,-2.989 -20.295,-7.163 1.29,-1.998 1.29,-1.998 -15.819,-11.64 1.492,-1.791 1.492,-1.791 -11.747,-11.58 2.388,-0.896 2.388,-0.896 0,0 41.187,-4.178 49.544,-0.597 8.357,3.582 25.668,22.086 25.668,22.086 C 5.048,-12.253 0,0 0,0" /></g><g
             transform="translate(574.8789,202.1628)"
             id="g492"><path
               id="path494"
               style="fill:#ffa499;fill-opacity:1;fill-rule:nonzero;stroke:none"
               d="M 0,0 C 1.473,1.512 2.369,2.469 2.369,2.469 -4.496,6.648 -9.544,18.9 -9.544,18.9 l -6.702,-7.3 C -10.901,7.628 -5.514,3.721 0,0" /></g><g
             transform="translate(559.586,217.3052)"
             id="g496"><path
               id="path498"
               style="fill:#55d3d1;fill-opacity:1;fill-rule:nonzero;stroke:none"
               d="m 0,0 18.237,-13.181 c 0,0 6.139,6.32 10.472,12.82 4.334,6.5 -18.056,13.542 -18.056,13.542 z" /></g><g
             id="g500"><g
               id="g502" /><g
               id="g514"><g
                 id="g512"
                 opacity="0.100006"
                 clip-path="url(#clipPath506)"><g
                   id="g510"
                   transform="translate(271.7296,50.4684)"><path
                     id="path508"
                     style="fill:#213d5d;fill-opacity:1;fill-rule:nonzero;stroke:none"
                     d="m 0,0 c 0,-5.365 -32.13,-9.715 -71.764,-9.715 -39.635,0 -71.765,4.35 -71.765,9.715 0,5.365 32.13,9.715 71.765,9.715 C -32.13,9.715 0,5.365 0,0" /></g></g></g></g><g
             transform="translate(168.046,371.2509)"
             id="g516"><path
               id="path518"
               style="fill:#fb7454;fill-opacity:1;fill-rule:nonzero;stroke:none"
               d="m 0,0 -2.771,-20.211 -14.176,-1.31 c 0,0 16.463,-12.224 30.643,-14.343 14.18,-2.119 20.211,8.313 20.211,8.313 l -16.8,3.878 2.608,19.396 z" /></g><g
             id="g520"><g
               id="g522" /><g
               id="g534"><g
                 id="g532"
                 opacity="0.300003"
                 clip-path="url(#clipPath526)"><g
                   id="g530"
                   transform="translate(168.046,371.2509)"><path
                     id="path528"
                     style="fill:#d84c2e;fill-opacity:1;fill-rule:nonzero;stroke:none"
                     d="m 0,0 -2.771,-20.211 -14.176,-1.31 c 0,0 16.463,-12.224 30.643,-14.343 14.18,-2.119 20.211,8.313 20.211,8.313 l -16.8,3.878 2.608,19.396 z" /></g></g></g></g><g
             transform="translate(164.4351,394.7449)"
             id="g536"><path
               id="path538"
               style="fill:#fb7454;fill-opacity:1;fill-rule:nonzero;stroke:none"
               d="m 0,0 c 0,0 -3.276,7.488 -8.424,0.468 -5.149,-7.02 3.744,-16.537 8.112,-18.721 C 4.056,-20.437 0,0 0,0" /></g><g
             transform="translate(215.023,401.7526)"
             id="g540"><path
               id="path542"
               style="fill:#fb7454;fill-opacity:1;fill-rule:nonzero;stroke:none"
               d="m 0,0 c 0,0 -3.226,-39.682 -15.486,-46.779 -12.259,-7.098 -37.436,-0.987 -35.81,29.358 1.936,36.133 20.647,39.682 28.068,39.682 C -15.808,22.261 0.968,12.582 0,0" /></g><g
             transform="translate(186.5881,412.6858)"
             id="g544"><path
               id="path546"
               style="fill:#213d5d;fill-opacity:1;fill-rule:nonzero;stroke:none"
               d="m 0,0 c 0,0 1.404,-12.949 18.409,-18.253 l -4.992,6.24 c 0,0 8.892,-7.02 16.536,-9.516 l -1.248,6.084 2.808,-4.056 c 0,0 1.248,4.992 -0.156,11.077 l 4.525,-8.581 c 0,0 2.496,19.345 -17.317,28.082 C -1.248,19.813 -8.58,8.736 -8.58,8.736 l 4.212,0.468 c 0,0 -9.361,8.737 -17.161,-2.34 -4.544,-6.452 -5.297,-14.876 -4.056,-21.217 3.12,-2.184 3.432,-8.268 3.432,-8.268 l -0.312,-9.048 4.368,-0.936 1.248,16.692 c 0,0 9.673,5.772 9.361,16.069 0,0 0.468,-11.857 18.72,-18.721 z" /></g><g
             transform="translate(177.0245,384.7472)"
             id="g548"><path
               id="path550"
               style="fill:#213d5d;fill-opacity:1;fill-rule:nonzero;stroke:none"
               d="M 0,0 C 0,0 -0.004,0.325 0.048,0.892 0.102,1.459 0.214,2.268 0.482,3.218 0.615,3.693 0.775,4.209 1.016,4.733 1.242,5.262 1.53,5.814 1.928,6.339 2.109,6.61 2.372,6.847 2.602,7.107 2.887,7.323 3.15,7.585 3.503,7.736 L 4.031,7.97 C 4.211,8.039 4.413,8.055 4.605,8.095 4.996,8.199 5.381,8.129 5.77,8.103 L 5.916,8.087 5.952,8.083 6.043,8.059 6.057,8.054 6.114,8.034 6.341,7.957 6.793,7.802 C 7.138,7.595 7.556,7.404 7.807,7.137 l 0.4,-0.388 C 8.33,6.613 8.417,6.455 8.521,6.311 8.738,6.022 8.867,5.708 9.008,5.405 9.277,4.795 9.399,4.181 9.494,3.609 9.572,3.034 9.595,2.493 9.589,1.997 9.577,1.006 9.439,0.198 9.324,-0.359 9.204,-0.916 9.1,-1.224 9.1,-1.224 c 0,0 -0.013,0.325 -0.055,0.885 C 9.003,0.219 8.934,1.014 8.785,1.939 8.704,2.401 8.594,2.89 8.467,3.397 8.316,3.895 8.134,4.406 7.888,4.882 7.642,5.357 7.316,5.788 6.925,6.107 6.739,6.301 6.539,6.339 6.36,6.491 L 5.903,6.635 5.675,6.706 5.617,6.724 5.603,6.729 5.596,6.731 C 5.744,6.691 5.634,6.72 5.665,6.711 L 5.641,6.712 5.548,6.717 C 5.3,6.73 5.045,6.805 4.811,6.732 4.692,6.707 4.567,6.713 4.452,6.67 L 4.111,6.526 C 3.88,6.439 3.681,6.251 3.459,6.125 3.271,5.931 3.053,5.779 2.885,5.562 2.535,5.149 2.209,4.71 1.944,4.256 1.675,3.807 1.439,3.358 1.233,2.936 0.828,2.089 0.522,1.35 0.318,0.828 0.116,0.301 0,0 0,0" /></g><g
             transform="translate(198.7095,380.223)"
             id="g552"><path
               id="path554"
               style="fill:#213d5d;fill-opacity:1;fill-rule:nonzero;stroke:none"
               d="M 0,0 C 0,0 -0.004,0.325 0.048,0.892 0.102,1.459 0.214,2.268 0.482,3.218 0.615,3.693 0.775,4.209 1.016,4.733 1.242,5.262 1.53,5.814 1.928,6.339 2.109,6.61 2.372,6.847 2.602,7.107 2.887,7.323 3.15,7.585 3.503,7.736 L 4.031,7.97 C 4.211,8.039 4.412,8.055 4.605,8.095 4.996,8.199 5.381,8.129 5.77,8.103 L 5.915,8.087 5.952,8.083 6.043,8.059 6.057,8.054 6.114,8.034 6.341,7.957 6.794,7.802 C 7.138,7.595 7.556,7.404 7.807,7.137 l 0.4,-0.388 C 8.33,6.613 8.417,6.455 8.521,6.311 8.738,6.022 8.867,5.708 9.008,5.405 9.277,4.795 9.399,4.181 9.494,3.609 9.572,3.034 9.595,2.493 9.589,1.997 9.577,1.006 9.439,0.198 9.324,-0.359 9.204,-0.916 9.1,-1.224 9.1,-1.224 c 0,0 -0.013,0.325 -0.055,0.885 C 9.003,0.219 8.934,1.014 8.785,1.939 8.704,2.401 8.594,2.89 8.467,3.397 8.316,3.895 8.134,4.406 7.888,4.882 7.642,5.357 7.316,5.788 6.925,6.107 6.739,6.301 6.539,6.339 6.36,6.491 L 5.903,6.635 5.675,6.706 5.617,6.724 5.603,6.729 5.596,6.731 C 5.744,6.691 5.634,6.72 5.665,6.711 L 5.641,6.712 5.548,6.717 C 5.3,6.73 5.045,6.805 4.811,6.732 4.692,6.707 4.567,6.713 4.452,6.67 L 4.111,6.526 C 3.88,6.439 3.681,6.251 3.459,6.125 3.271,5.931 3.053,5.779 2.885,5.562 2.535,5.149 2.209,4.71 1.944,4.256 1.675,3.807 1.439,3.358 1.233,2.936 0.827,2.089 0.522,1.35 0.318,0.828 0.116,0.301 0,0 0,0" /></g><g
             transform="translate(197.6647,389.2847)"
             id="g556"><path
               id="path558"
               style="fill:#d84c2e;fill-opacity:1;fill-rule:nonzero;stroke:none"
               d="m 0,0 c 0.398,-1.54 0.662,-3.09 0.906,-4.641 0.101,-0.776 0.225,-1.552 0.306,-2.33 0.079,-0.778 0.183,-1.555 0.241,-2.334 0.142,-1.558 0.235,-3.118 0.307,-4.681 0.053,-1.563 0.081,-3.128 0.046,-4.698 l -0.011,-0.497 -0.384,-0.075 c -1.234,-0.24 -2.477,-0.449 -3.751,-0.557 1.118,0.62 2.267,1.139 3.425,1.627 L 0.69,-18.758 c -0.243,1.551 -0.424,3.106 -0.578,4.663 -0.136,1.557 -0.251,3.117 -0.317,4.679 -0.047,0.781 -0.046,1.564 -0.071,2.346 -0.023,0.782 -0.003,1.567 -0.006,2.35 C -0.246,-3.15 -0.19,-1.58 0,0" /></g><g
             transform="translate(178.0077,370.5638)"
             id="g560"><path
               id="path562"
               style="fill:#ffffff;fill-opacity:1;fill-rule:nonzero;stroke:none"
               d="m 0,0 22.621,-4.68 c 0,0 -12.48,-6.709 -22.621,4.68" /></g><g
             transform="translate(175.1359,395.5561)"
             id="g564"><path
               id="path566"
               style="fill:#213d5d;fill-opacity:1;fill-rule:nonzero;stroke:none"
               d="M 0,0 C 0,0 0.152,0.25 0.49,0.618 0.82,0.996 1.342,1.473 2.033,1.979 2.736,2.453 3.605,2.964 4.64,3.306 5.146,3.505 5.704,3.623 6.273,3.736 6.844,3.843 7.448,3.869 8.046,3.887 8.651,3.825 9.259,3.849 9.844,3.664 c 0.592,-0.126 1.158,-0.302 1.67,-0.576 0.257,-0.13 0.515,-0.238 0.749,-0.38 0.22,-0.164 0.435,-0.325 0.644,-0.482 0.2,-0.161 0.395,-0.318 0.583,-0.47 0.164,-0.177 0.314,-0.357 0.456,-0.527 0.276,-0.349 0.534,-0.652 0.702,-0.965 0.169,-0.312 0.289,-0.599 0.389,-0.828 0.197,-0.461 0.273,-0.732 0.273,-0.732 0,0 -0.276,0.128 -0.695,0.366 -0.208,0.12 -0.462,0.257 -0.722,0.43 -0.273,0.162 -0.625,0.277 -0.952,0.448 C 12.777,0.03 12.606,0.114 12.429,0.202 12.244,0.264 12.052,0.327 11.855,0.393 11.667,0.463 11.474,0.535 11.277,0.609 11.074,0.655 10.865,0.703 10.654,0.751 10.441,0.789 10.243,0.87 10.025,0.901 9.803,0.92 9.584,0.947 9.365,0.983 8.933,1.077 8.461,1.036 8.01,1.08 7.548,1.075 7.082,1.068 6.616,1.038 6.151,0.986 5.686,0.972 5.231,0.894 4.773,0.847 4.329,0.768 3.9,0.701 3.468,0.641 3.063,0.548 2.674,0.491 1.07,0.197 0,0 0,0" /></g><g
             transform="translate(199.6927,391.3128)"
             id="g568"><path
               id="path570"
               style="fill:#213d5d;fill-opacity:1;fill-rule:nonzero;stroke:none"
               d="m 0,0 c 0,0 0.127,0.237 0.424,0.587 0.29,0.357 0.751,0.819 1.382,1.284 0.323,0.217 0.669,0.477 1.077,0.676 0.403,0.207 0.841,0.414 1.327,0.56 0.471,0.181 1.002,0.265 1.537,0.356 0.544,0.051 1.11,0.083 1.677,0.023 0.568,-0.081 1.138,-0.153 1.669,-0.385 0.55,-0.159 1.031,-0.453 1.476,-0.755 0.472,-0.263 0.803,-0.669 1.139,-1.005 0.352,-0.326 0.56,-0.729 0.763,-1.079 0.198,-0.352 0.398,-0.655 0.474,-0.978 0.104,-0.306 0.167,-0.583 0.222,-0.805 0.106,-0.445 0.131,-0.703 0.131,-0.703 0,0 -0.239,0.147 -0.594,0.411 -0.175,0.133 -0.392,0.286 -0.608,0.475 -0.207,0.2 -0.526,0.334 -0.792,0.537 -0.286,0.184 -0.568,0.404 -0.912,0.544 C 10.059,-0.104 9.757,0.119 9.385,0.214 9.206,0.272 9.033,0.345 8.859,0.417 8.682,0.483 8.484,0.497 8.303,0.553 7.939,0.668 7.545,0.701 7.155,0.75 6.766,0.808 6.356,0.786 5.954,0.807 5.546,0.772 5.138,0.793 4.733,0.732 4.328,0.705 3.931,0.647 3.545,0.594 3.159,0.546 2.789,0.476 2.436,0.431 2.098,0.35 1.76,0.32 1.472,0.258 1.174,0.204 0.915,0.158 0.701,0.119 0.255,0.043 0,0 0,0" /></g><g
             transform="translate(179.483,87.8615)"
             id="g572"><path
               id="path574"
               style="fill:#fb7454;fill-opacity:1;fill-rule:nonzero;stroke:none"
               d="m 0,0 c 0,0 1.71,-32.006 -0.733,-34.938 -2.443,-2.932 -58.392,-17.346 -11.483,7.086 l -4.642,41.29 14.659,-17.592" /></g><g
             transform="translate(148.6487,47.586)"
             id="g576"><path
               id="path578"
               style="fill:#213d5d;fill-opacity:1;fill-rule:nonzero;stroke:none"
               d="m 0,0 c -1.407,-4.905 28.334,3.218 30.101,5.338 0.243,0.291 0.443,0.879 0.61,1.684 C 26.328,4.632 6.425,-0.82 0,0" /></g><g
             transform="translate(154.3181,53.3514)"
             id="g580"><path
               id="path582"
               style="fill:#213d5d;fill-opacity:1;fill-rule:nonzero;stroke:none"
               d="M 0,0 2.932,1.71 9.956,-3.848 5.68,-5.68 c 0,0 -2.87,5.558 -8.184,-0.245 z" /></g><g
             id="g584"><g
               id="g586" /><g
               id="g598"><g
                 id="g596"
                 opacity="0.199997"
                 clip-path="url(#clipPath590)"><g
                   id="g594"
                   transform="translate(180.0536,65.2767)"><path
                     id="path592"
                     style="fill:#091e30;fill-opacity:1;fill-rule:nonzero;stroke:none"
                     d="m 0,0 c 0.096,10.09 -0.571,22.585 -0.571,22.585 l -2.199,-4.154 -14.659,17.591 4.1,-36.468 C -8.886,-0.281 -4.443,-0.124 0,0" /></g></g></g></g><g
             transform="translate(209.9713,87.8615)"
             id="g600"><path
               id="path602"
               style="fill:#fb7454;fill-opacity:1;fill-rule:nonzero;stroke:none"
               d="m 0,0 c 0,0 -1.71,-32.006 0.733,-34.938 2.443,-2.932 59.619,-16.783 12.71,7.648 L 12.291,22.224 2.199,-4.154" /></g><g
             transform="translate(240.8056,47.586)"
             id="g604"><path
               id="path606"
               style="fill:#213d5d;fill-opacity:1;fill-rule:nonzero;stroke:none"
               d="m 0,0 c 1.407,-4.905 -28.335,3.218 -30.101,5.338 -0.243,0.291 -0.443,0.879 -0.61,1.684 C -26.328,4.632 -6.425,-0.82 0,0" /></g><g
             transform="translate(236.3106,53.8935)"
             id="g608"><path
               id="path610"
               style="fill:#213d5d;fill-opacity:1;fill-rule:nonzero;stroke:none"
               d="m 0,0 -2.932,1.71 -8.198,-6.1 4.275,-1.833 c 0,0 2.871,5.559 8.185,-0.244 z" /></g><g
             id="g612"><g
               id="g614" /><g
               id="g626"><g
                 id="g624"
                 opacity="0.199997"
                 clip-path="url(#clipPath618)"><g
                   id="g622"
                   transform="translate(223.298,65.5654)"><path
                     id="path620"
                     style="fill:#091e30;fill-opacity:1;fill-rule:nonzero;stroke:none"
                     d="m 0,0 -1.035,44.52 -10.093,-26.377 -2.199,4.153 c 0,0 -0.856,-16.039 -0.488,-26.446 C -9.151,-2.948 -4.518,-1.641 0,0" /></g></g></g></g><g
             style="fill:#7d55a7;fill-opacity:1"
             transform="translate(144.7427,228.7887)"
             id="g628"><path
               id="path630"
               style="fill:#7d55a7;fill-opacity:1;fill-rule:nonzero;stroke:none"
               d="m 0,0 19.559,-159.407 17.252,0.127 -3.6,143.084 8.1,-0.45 22.497,-140.834 17.851,1.496 -10.502,170.535 z" /></g><g
             id="g632"><g
               id="g634" /><g
               id="g646"><g
                 id="g644"
                 opacity="0.199997"
                 clip-path="url(#clipPath638)"><g
                   id="g642"
                   transform="translate(214.8328,229.8805)"><path
                     id="path640"
                     style="fill:#091e30;fill-opacity:1;fill-rule:nonzero;stroke:none"
                     d="M 0,0 -1.144,15.534 -70.09,-1.092 -69.023,-9.789 C -45.949,-6.96 -22.859,-4.249 0,0" /></g></g></g></g><g
             transform="translate(160.393,76.2226)"
             id="g648"><path
               id="path650"
               style="fill:#adefe6;fill-opacity:1;fill-rule:nonzero;stroke:none"
               d="M 0,0 22.141,0.517 22.971,-7.579 2.847,-9.44 Z" /></g><g
             transform="translate(227.1367,77.9954)"
             id="g652"><path
               id="path654"
               style="fill:#adefe6;fill-opacity:1;fill-rule:nonzero;stroke:none"
               d="m 0,0 -20.634,-3.163 0.95,-8.084 20.109,1.893 z" /></g><g
             transform="translate(221.9337,318.3994)"
             id="g656"><path
               id="path658"
               style="fill:#fb7454;fill-opacity:1;fill-rule:nonzero;stroke:none"
               d="m 0,0 18.057,-23.13 c 0,0 42.975,28.325 45.691,27.986 2.716,-0.34 -40.201,-55.061 -47.491,-57.02 -7.291,-1.959 -40.185,42.63 -40.185,42.63 z" /></g><g
             id="g660"><g
               id="g662" /><g
               id="g674"><g
                 id="g672"
                 opacity="0.300003"
                 clip-path="url(#clipPath666)"><g
                   id="g670"
                   transform="translate(227.5007,311.2686)"><path
                     id="path668"
                     style="fill:#d84c2e;fill-opacity:1;fill-rule:nonzero;stroke:none"
                     d="m 0,0 -5.567,7.131 -23.928,-9.534 c 0,0 4.124,-5.59 9.774,-12.723 C -13.133,-10.104 -5.893,-5.868 0,0" /></g></g></g></g><g
             id="g676"><g
               id="g678" /><g
               id="g690"><g
                 id="g688"
                 opacity="0.300003"
                 clip-path="url(#clipPath682)"><g
                   id="g686"
                   transform="translate(254.7531,282.2814)"><path
                     id="path684"
                     style="fill:#d84c2e;fill-opacity:1;fill-rule:nonzero;stroke:none"
                     d="M 0,0 C 14.607,16.8 32.722,40.75 30.928,40.974 29.026,41.212 7.37,27.384 -5.432,19.08 -3.458,12.763 -1.492,6.443 0,0" /></g></g></g></g><g
             transform="translate(161.8569,351.0355)"
             id="g692"><path
               id="path694"
               style="fill:#e05aa9;fill-opacity:1;fill-rule:nonzero;stroke:none"
               d="m 0,0 c 0,0 -20.048,1.914 -24.938,-11.486 -4.89,-13.4 1.467,-88.535 5.868,-111.506 0,0 42.541,-4.307 76.77,4.786 0,0 -6.846,68.913 -5.868,81.356 0.978,12.443 4.401,29.193 -15.159,31.586 0,0 -6.845,-11.964 -20.537,-9.093 C 2.445,-11.486 0,0 0,0" /></g><g
             id="g696"><g
               id="g698" /><g
               id="g710"><g
                 id="g708"
                 opacity="0.199997"
                 clip-path="url(#clipPath702)"><g
                   id="g706"
                   transform="translate(135.6416,300.3134)"><path
                     id="path704"
                     style="fill:#213d5d;fill-opacity:1;fill-rule:nonzero;stroke:none"
                     d="m 0,0 c 1.228,-26.582 4.531,-58.627 7.145,-72.27 0,0 42.541,-4.307 76.77,4.786 0,0 -2.989,30.09 -4.735,54.095 C 51.986,-11.874 25.054,-8.199 0,0" /></g></g></g></g><g
             style="fill:#e05aa9;fill-opacity:1"
             transform="translate(198.5304,345.7713)"
             id="g712"><path
               id="path714"
               style="fill:#e05aa9;fill-opacity:1;fill-rule:nonzero;stroke:none"
               d="M 0,0 C 0,0 14.47,1.985 25.769,-23.841 L 28.918,-31.04 9.121,-43.638 Z" /></g><g
             transform="translate(239.3251,261.3737)"
             id="g716"><path
               id="path718"
               style="fill:#3a6593;fill-opacity:1;fill-rule:nonzero;stroke:none"
               d="m 0,0 9.425,-6.14 32.172,49.39 -9.425,6.139 z" /></g><g
             id="g720"><g
               id="g722" /><g
               id="g734"><g
                 id="g732"
                 opacity="0.5"
                 clip-path="url(#clipPath726)"><g
                   id="g730"
                   transform="translate(239.3251,261.3737)"><path
                     id="path728"
                     style="fill:#213d5d;fill-opacity:1;fill-rule:nonzero;stroke:none"
                     d="m 0,0 9.425,-6.14 32.172,49.39 -9.425,6.139 z" /></g></g></g></g><g
             transform="translate(348.7134,317.4129)"
             id="g736"><path
               id="path738"
               style="fill:#3a6593;fill-opacity:1;fill-rule:nonzero;stroke:none"
               d="m 0,0 c -16.292,-25.011 -49.775,-32.079 -74.786,-15.787 -25.011,16.292 -32.08,49.775 -15.788,74.786 16.293,25.011 49.775,32.079 74.787,15.787 C 9.224,58.494 16.292,25.011 0,0" /></g><g
             transform="translate(339.6127,323.341)"
             id="g740"><path
               id="path742"
               style="fill:#55d3d1;fill-opacity:1;fill-rule:nonzero;stroke:none"
               d="M 0,0 C -13.018,-19.985 -39.772,-25.633 -59.757,-12.615 -79.742,0.403 -85.39,27.158 -72.372,47.143 -59.354,67.128 -32.6,72.775 -12.615,59.757 7.37,46.739 13.018,19.985 0,0" /></g><path
             id="path746"
             style="fill:#cccccc;fill-opacity:1;fill-rule:nonzero;stroke:none"
             d="m 0,0 c -2.17,-3.332 -1.229,-7.792 2.103,-9.962 l 7.163,-4.666 c 3.332,-2.17 7.792,-1.228 9.962,2.103 l 50.591,77.666 c 2.17,3.331 1.228,7.791 -2.103,9.962 l -7.163,4.666 c -3.332,2.17 -7.792,1.228 -9.962,-2.103 z"
             transform="translate(194.1986,204.85011)" /><g
             style="fill:#999999"
             id="g748"><g
               style="fill:#999999"
               id="g750" /><g
               style="fill:#999999"
               id="g762"><g
                 style="fill:#999999"
                 id="g760"
                 opacity="0.199997"
                 clip-path="url(#clipPath754)"><g
                   style="fill:#999999"
                   id="g758"
                   transform="translate(254.7511,284.6188)"><path
                     id="path756"
                     style="fill:#999999;fill-opacity:1;fill-rule:nonzero;stroke:none"
                     d="m 0,0 3.016,-1.965 c -3.331,2.17 -7.791,1.229 -9.961,-2.103 l -50.591,-77.665 c -2.17,-3.332 -1.229,-7.792 2.102,-9.962 l -3.016,1.965 c -3.331,2.17 -4.273,6.63 -2.103,9.961 L -9.962,-2.103 C -7.792,1.229 -3.332,2.17 0,0" /></g></g></g></g><g
             id="g764"><g
               id="g766" /><g
               id="g778"><g
                 id="g776"
                 opacity="0.199997"
                 clip-path="url(#clipPath770)"><g
                   id="g774"
                   transform="translate(341.6859,366.9375)"><path
                     id="path772"
                     style="fill:#ffffff;fill-opacity:1;fill-rule:nonzero;stroke:none"
                     d="m 0,0 -80.946,-26.529 c -0.606,3.969 -0.67,8.026 -0.151,12.052 L -4.605,7.039 C -2.828,4.831 -1.291,2.472 0,0" /></g></g></g></g><g
             id="g780"><g
               id="g782" /><g
               id="g794"><g
                 id="g792"
                 opacity="0.199997"
                 clip-path="url(#clipPath786)"><g
                   id="g790"
                   transform="translate(345.8009,355.1912)"><path
                     id="path788"
                     style="fill:#ffffff;fill-opacity:1;fill-rule:nonzero;stroke:none"
                     d="M 0,0 C 0.449,-2.296 0.712,-4.628 0.785,-6.974 L -76.189,-35.14 c -2.474,3.114 -4.487,6.52 -5.996,10.118 z" /></g></g></g></g><g
             transform="translate(143.308,303.4827)"
             id="g796"><path
               id="path798"
               style="fill:#fb7454;fill-opacity:1;fill-rule:nonzero;stroke:none"
               d="m 0,0 26.547,6.749 c 0,0 2.7,-22.047 6.299,-40.045 5.85,-6.3 27.275,-40.793 29.697,-44.095 0,0 22.498,0 3.6,-2.7 0,0 26.097,-22.048 -1.8,-3.6 0,0 29.247,-24.747 -1.8,-2.7 0,0 25.197,-22.497 -2.25,-2.699 0,0 15.749,-19.348 -2.249,-1.8 -10.11,9.857 -34.375,30.611 -44.995,48.145 C 4.761,-29.064 4.536,-10.058 0,0" /></g><g
             id="g800"><g
               id="g802" /><g
               id="g814"><g
                 id="g812"
                 opacity="0.300003"
                 clip-path="url(#clipPath806)"><g
                   id="g810"
                   transform="translate(170.8999,305.5363)"><path
                     id="path808"
                     style="fill:#d84c2e;fill-opacity:1;fill-rule:nonzero;stroke:none"
                     d="m 0,0 c -0.648,2.923 -1.045,4.696 -1.045,4.696 l -26.547,-6.75 c 0.808,-1.79 1.578,-3.999 2.347,-6.487 C -16.957,-5.309 -8.596,-2.299 0,0" /></g></g></g></g></g></g></g></g></svg>
